HIERARCHY
ROOT Hips
{
	OFFSET 0.000000 83.214638 0.000000
	CHANNELS 6 Xposition Yposition Zposition Xrotation Yrotation Zrotation
	JOINT Pelvis
	{
		OFFSET 0.000000 0.000000 0.000000
		CHANNELS 3 Xrotation Yrotation Zrotation
		JOINT LeftUpLeg
		{
			OFFSET 8.479700 -4.795502 -0.379100
			CHANNELS 3 Xrotation Yrotation Zrotation
			JOINT LeftLeg
			{
				OFFSET 0.024144 -32.555107 0.112900
				CHANNELS 3 Xrotation Yrotation Zrotation
				JOINT LeftFoot
				{
					OFFSET -0.024144 -32.638630 -3.012600
					CHANNELS 3 Xrotation Yrotation Zrotation
					JOINT LeftToeBase
					{
						OFFSET 0.970200 -13.225400 11.864200
						CHANNELS 3 Xrotation Yrotation Zrotation
						End Site
						{
							OFFSET 0.000000 12.319262 0.000000
						}
					}
					JOINT LFootTongue
					{
						OFFSET 1.142400 -1.059800 6.665200
						CHANNELS 3 Xrotation Yrotation Zrotation
						End Site
						{
							OFFSET 0.000000 12.319262 0.000000
						}
					}
				}
				JOINT LeftPantLeg
				{
					OFFSET 0.918482 -16.533964 -2.284700
					CHANNELS 3 Xrotation Yrotation Zrotation
					End Site
					{
						OFFSET 0.350399 24.744368 0.000000
					}
				}
			}
		}
		JOINT RightUpLeg
		{
			OFFSET -8.479700 -4.795502 -0.379100
			CHANNELS 3 Xrotation Yrotation Zrotation
			JOINT RightLeg
			{
				OFFSET -0.023144 -32.555092 0.112900
				CHANNELS 3 Xrotation Yrotation Zrotation
				JOINT RightFoot
				{
					OFFSET 0.023144 -32.638641 -3.012700
					CHANNELS 3 Xrotation Yrotation Zrotation
					JOINT RightToeBase
					{
						OFFSET -0.970200 -13.225400 11.864200
						CHANNELS 3 Xrotation Yrotation Zrotation
						End Site
						{
							OFFSET 0.000000 12.319244 0.000000
						}
					}
					JOINT RFootTongue
					{
						OFFSET -1.142200 -1.059800 6.665200
						CHANNELS 3 Xrotation Yrotation Zrotation
						End Site
						{
							OFFSET 0.000000 12.319243 0.000000
						}
					}
				}
				JOINT RightPantLeg
				{
					OFFSET -0.919482 -16.533978 -2.284800
					CHANNELS 3 Xrotation Yrotation Zrotation
					End Site
					{
						OFFSET -0.350400 24.744419 0.000000
					}
				}
			}
		}
	}
	JOINT Spine
	{
		OFFSET 0.000000 7.722000 1.166200
		CHANNELS 3 Xrotation Yrotation Zrotation
		JOINT Spine1
		{
			OFFSET 0.000000 12.024101 0.248800
			CHANNELS 3 Xrotation Yrotation Zrotation
			JOINT Spine2
			{
				OFFSET 0.000000 11.502998 -0.491200
				CHANNELS 3 Xrotation Yrotation Zrotation
				JOINT Neck
				{
					OFFSET 0.000000 18.430702 -3.123100
					CHANNELS 3 Xrotation Yrotation Zrotation
					JOINT Head
					{
						OFFSET 0.000000 9.051102 1.034000
						CHANNELS 3 Xrotation Yrotation Zrotation
						JOINT HairB
						{
							OFFSET 0.208400 24.786102 24.822300
							CHANNELS 3 Xrotation Yrotation Zrotation
							End Site
							{
								OFFSET 0.000000 32.263779 0.000000
							}
						}
						JOINT HairA
						{
							OFFSET -7.081100 24.428299 23.196600
							CHANNELS 3 Xrotation Yrotation Zrotation
							End Site
							{
								OFFSET 0.000000 32.263779 0.000000
							}
						}
						JOINT Hat
						{
							OFFSET 16.728800 15.048294 -15.439601
							CHANNELS 3 Xrotation Yrotation Zrotation
							End Site
							{
								OFFSET 0.000000 32.263779 0.000000
							}
						}
					}
				}
				JOINT LeftShoulder
				{
					OFFSET 6.197800 13.665199 -4.064700
					CHANNELS 3 Xrotation Yrotation Zrotation
					JOINT LeftArm
					{
						OFFSET 7.778100 -0.187103 -1.709300
						CHANNELS 3 Xrotation Yrotation Zrotation
						JOINT LeftForeArm
						{
							OFFSET 22.049376 0.000000 0.000000
							CHANNELS 3 Xrotation Yrotation Zrotation
							JOINT LeftHand
							{
								OFFSET 23.009392 0.000000 0.000000
								CHANNELS 3 Xrotation Yrotation Zrotation
								JOINT LeftHandThumb1
								{
									OFFSET 3.507191 -2.063065 3.133727
									CHANNELS 3 Xrotation Yrotation Zrotation
									JOINT LeftHandThumb2
									{
										OFFSET 3.101337 -1.790558 1.790558
										CHANNELS 3 Xrotation Yrotation Zrotation
										JOINT LeftHandThumb3
										{
											OFFSET 3.058640 -1.765907 1.765906
											CHANNELS 3 Xrotation Yrotation Zrotation
											End Site
											{
												OFFSET -0.415260 3.926476 -0.049563
											}
										}
									}
								}
								JOINT LeftHandIndex1
								{
									OFFSET 11.334419 -0.901459 3.706815
									CHANNELS 3 Xrotation Yrotation Zrotation
									JOINT LeftHandIndex2
									{
										OFFSET 3.283112 0.000000 0.000000
										CHANNELS 3 Xrotation Yrotation Zrotation
										JOINT LeftHandIndex3
										{
											OFFSET 3.323853 0.000000 0.000000
											CHANNELS 3 Xrotation Yrotation Zrotation
											End Site
											{
												OFFSET -1.135597 3.097809 0.402452
											}
										}
									}
								}
								JOINT LeftHandMiddle1
								{
									OFFSET 11.335861 0.000000 0.000000
									CHANNELS 3 Xrotation Yrotation Zrotation
									JOINT LeftHandMiddle2
									{
										OFFSET 3.410492 0.000000 0.000000
										CHANNELS 3 Xrotation Yrotation Zrotation
										JOINT LeftHandMiddle3
										{
											OFFSET 3.312172 0.000000 0.000000
											CHANNELS 3 Xrotation Yrotation Zrotation
											End Site
											{
												OFFSET -1.150200 3.080154 0.400270
											}
										}
									}
								}
								JOINT LeftHandRing1
								{
									OFFSET 11.514786 -0.013176 -3.003090
									CHANNELS 3 Xrotation Yrotation Zrotation
									JOINT LeftHandRing2
									{
										OFFSET 3.053307 0.000000 0.000000
										CHANNELS 3 Xrotation Yrotation Zrotation
										JOINT LeftHandRing3
										{
											OFFSET 3.295807 0.000000 0.000000
											CHANNELS 3 Xrotation Yrotation Zrotation
											End Site
											{
												OFFSET -1.281006 3.013344 0.375733
											}
										}
									}
								}
								JOINT LeftHandPinky1
								{
									OFFSET 10.518692 -0.960396 -5.730441
									CHANNELS 3 Xrotation Yrotation Zrotation
									JOINT LeftHandPinky2
									{
										OFFSET 2.861649 0.000000 0.000000
										CHANNELS 3 Xrotation Yrotation Zrotation
										JOINT LeftHandPinky3
										{
											OFFSET 2.863380 0.000000 0.000000
											CHANNELS 3 Xrotation Yrotation Zrotation
											End Site
											{
												OFFSET -0.843597 2.711159 0.369971
											}
										}
									}
								}
							}
							JOINT LSleeve
							{
								OFFSET 6.676277 -0.344902 -1.011730
								CHANNELS 3 Xrotation Yrotation Zrotation
								End Site
								{
									OFFSET 0.000000 14.885353 0.000000
								}
							}
						}
					}
				}
				JOINT RightShoulder
				{
					OFFSET -6.197800 13.665199 -4.064700
					CHANNELS 3 Xrotation Yrotation Zrotation
					JOINT RightArm
					{
						OFFSET -7.778100 -0.187103 -1.709300
						CHANNELS 3 Xrotation Yrotation Zrotation
						JOINT RightForeArm
						{
							OFFSET -22.049376 0.000000 0.000000
							CHANNELS 3 Xrotation Yrotation Zrotation
							JOINT RightHand
							{
								OFFSET -23.009392 0.000000 0.000000
								CHANNELS 3 Xrotation Yrotation Zrotation
								JOINT RightHandThumb1
								{
									OFFSET -3.507191 -2.063065 3.133727
									CHANNELS 3 Xrotation Yrotation Zrotation
									JOINT RightHandThumb2
									{
										OFFSET -3.101337 -1.790558 1.790558
										CHANNELS 3 Xrotation Yrotation Zrotation
										JOINT RightHandThumb3
										{
											OFFSET -3.058640 -1.765907 1.765906
											CHANNELS 3 Xrotation Yrotation Zrotation
											End Site
											{
												OFFSET 0.415260 3.926476 -0.049563
											}
										}
									}
								}
								JOINT RightHandIndex1
								{
									OFFSET -11.334419 -0.901459 3.706815
									CHANNELS 3 Xrotation Yrotation Zrotation
									JOINT RightHandIndex2
									{
										OFFSET -3.283112 0.000000 0.000000
										CHANNELS 3 Xrotation Yrotation Zrotation
										JOINT RightHandIndex3
										{
											OFFSET -3.323853 0.000000 0.000000
											CHANNELS 3 Xrotation Yrotation Zrotation
											End Site
											{
												OFFSET 1.135597 3.097809 0.402452
											}
										}
									}
								}
								JOINT RightHandMiddle1
								{
									OFFSET -11.335861 0.000000 0.000000
									CHANNELS 3 Xrotation Yrotation Zrotation
									JOINT RightHandMiddle2
									{
										OFFSET -3.410492 0.000000 0.000000
										CHANNELS 3 Xrotation Yrotation Zrotation
										JOINT RightHandMiddle3
										{
											OFFSET -3.312172 0.000000 0.000000
											CHANNELS 3 Xrotation Yrotation Zrotation
											End Site
											{
												OFFSET 1.150200 3.080154 0.400270
											}
										}
									}
								}
								JOINT RightHandRing1
								{
									OFFSET -11.514786 -0.013176 -3.003090
									CHANNELS 3 Xrotation Yrotation Zrotation
									JOINT RightHandRing2
									{
										OFFSET -3.053307 0.000000 0.000000
										CHANNELS 3 Xrotation Yrotation Zrotation
										JOINT RightHandRing3
										{
											OFFSET -3.295807 0.000000 0.000000
											CHANNELS 3 Xrotation Yrotation Zrotation
											End Site
											{
												OFFSET 1.281006 3.013344 0.375733
											}
										}
									}
								}
								JOINT RightHandPinky1
								{
									OFFSET -10.518692 -0.960396 -5.730441
									CHANNELS 3 Xrotation Yrotation Zrotation
									JOINT RightHandPinky2
									{
										OFFSET -2.861649 0.000000 0.000000
										CHANNELS 3 Xrotation Yrotation Zrotation
										JOINT RightHandPinky3
										{
											OFFSET -2.863380 0.000000 0.000000
											CHANNELS 3 Xrotation Yrotation Zrotation
											End Site
											{
												OFFSET 0.843597 2.711159 0.369971
											}
										}
									}
								}
							}
							JOINT RSleeve
							{
								OFFSET -6.676277 -0.344902 -1.011730
								CHANNELS 3 Xrotation Yrotation Zrotation
								End Site
								{
									OFFSET 0.000000 14.885353 0.000000
								}
							}
						}
					}
				}
				JOINT Backpack
				{
					OFFSET 0.000000 -2.471497 36.677502
					CHANNELS 3 Xrotation Yrotation Zrotation
					End Site
					{
						OFFSET 0.000000 20.427315 0.000000
					}
				}
				JOINT Hood
				{
					OFFSET 0.000000 18.754097 -10.431000
					CHANNELS 3 Xrotation Yrotation Zrotation
					JOINT Hood1
					{
						OFFSET 0.000000 -5.011002 -7.685901
						CHANNELS 3 Xrotation Yrotation Zrotation
						End Site
						{
							OFFSET 0.000000 9.175140 0.000000
						}
					}
				}
				JOINT LHoodieString
				{
					OFFSET 5.250500 16.397697 3.089900
					CHANNELS 3 Xrotation Yrotation Zrotation
					JOINT LHoodieString1
					{
						OFFSET 0.257700 -6.364304 3.694600
						CHANNELS 3 Xrotation Yrotation Zrotation
						JOINT LHoodieString2
						{
							OFFSET 0.000000 -9.643799 2.679100
							CHANNELS 3 Xrotation Yrotation Zrotation
							End Site
							{
								OFFSET 0.000000 10.009018 0.000000
							}
						}
					}
				}
				JOINT RHoodieString
				{
					OFFSET -5.250500 16.397697 3.089900
					CHANNELS 3 Xrotation Yrotation Zrotation
					JOINT RHoodieString1
					{
						OFFSET -0.257700 -6.364304 3.694600
						CHANNELS 3 Xrotation Yrotation Zrotation
						JOINT RHoodieString2
						{
							OFFSET 0.000000 -9.643799 2.679100
							CHANNELS 3 Xrotation Yrotation Zrotation
							End Site
							{
								OFFSET 0.000000 10.009018 0.000000
							}
						}
					}
				}
			}
			JOINT LBackpack_Strap
			{
				OFFSET 15.223200 -7.719803 -6.610900
				CHANNELS 3 Xrotation Yrotation Zrotation
				End Site
				{
					OFFSET 0.000000 16.040596 0.000000
				}
			}
			JOINT RBackpack_Strap
			{
				OFFSET -15.223000 -7.719803 -6.610900
				CHANNELS 3 Xrotation Yrotation Zrotation
				End Site
				{
					OFFSET 0.000000 16.040596 0.000000
				}
			}
		}
	}
	JOINT BoyFacialAnim_Joint
	{
		OFFSET 1.000000 -82.208099 -1.550900
		CHANNELS 3 Xrotation Yrotation Zrotation
		End Site
		{
			OFFSET 0.000000 30.012791 0.000000
		}
	}
}
MOTION
Frames: 4
Frame Time: 0.033333
-3.594683 42.146286 14.565161 -40.064616 -39.880006 -24.845969 0.000001 -0.000003 -0.000000 -53.316525 2.497969 23.546654 132.160773 -5.020838 0.450799 -38.036487 -3.901723 -2.265505 0.000001 0.000000 0.000000 0.000001 0.000000 0.000000 0.000003 0.000001 -0.000001 -11.829201 24.370219 -16.414526 131.813580 7.195025 -1.208874 -35.941241 -19.659105 35.817232 -0.000002 0.000000 -0.000001 -0.000002 0.000000 -0.000001 0.000000 0.000000 -0.000004 22.969878 -7.318976 6.588624 6.238108 -1.179210 1.150808 12.948335 -0.767321 1.306513 -14.899366 8.587905 1.022273 12.263640 25.690450 -8.715659 -0.000000 0.000000 0.000000 -0.000000 0.000000 0.000000 -0.000000 0.000000 0.000000 -37.559050 -4.830599 1.310659 6.275104 5.370398 -72.427032 -0.000021 -53.806731 -0.000034 -117.350969 -17.560652 -19.714902 -0.078486 -5.269742 10.138939 26.530364 11.996261 -3.196175 -0.000001 0.000000 -0.000001 -4.243106 -3.893995 -29.551811 2.681586 4.920781 -57.155754 0.000001 -0.000000 -0.000004 -4.896728 1.586218 -53.429073 2.612116 4.875392 -56.342179 0.000003 -0.000002 0.000003 -7.664372 0.009558 -55.438067 4.016500 5.556981 -71.697548 0.000004 0.000001 0.000003 -2.544677 4.748607 -64.017635 4.318709 5.647526 -74.792313 -0.000000 -0.000002 0.000005 -0.000000 0.000000 0.000002 -24.307489 25.527431 -6.376931 -81.954251 12.035417 -0.868537 0.000063 76.095322 -0.000050 0.767729 13.466871 -33.870430 51.453827 26.930213 -6.009378 -0.015636 -12.091169 -3.158459 0.000000 0.000000 -0.000000 -6.693173 6.334739 34.571569 1.980686 -3.812652 54.891621 -0.000004 -0.000002 0.000003 -0.925968 -3.881150 53.127288 2.108604 -3.899228 56.793399 0.000002 -0.000002 0.000001 0.646165 -5.180837 56.519368 2.870882 -4.301683 67.423249 0.000001 -0.000001 0.000000 5.705745 -7.886206 64.800539 0.205713 -1.370265 17.075586 0.000005 -0.000000 0.000000 -0.000000 0.000000 0.000001 0.000001 -0.000003 0.000001 0.000001 -0.000003 0.000001 0.000001 -0.000003 0.000001 0.000001 -0.000003 0.000001 0.000001 -0.000003 0.000001 -0.000000 0.000002 -0.000000 0.000001 -0.000003 0.000001 0.000001 -0.000003 0.000001 -0.000000 0.000002 -0.000000 -0.000000 0.000001 -0.000002 -0.000000 0.000001 -0.000002 0.000001 -0.000003 -0.000000 
-4.103958 42.516762 14.880352 -40.701080 -38.338234 -24.497585 -0.000002 -0.000002 -0.000000 -51.021202 2.282009 22.227486 131.614494 -5.432595 0.270175 -37.847045 -3.925617 -1.941778 0.000001 0.000002 -0.000000 0.000001 0.000002 -0.000000 0.000003 -0.000001 0.000003 -9.105900 22.296816 -16.971864 131.107530 7.659238 -1.265295 -35.895711 -21.241514 34.390761 0.000001 0.000001 0.000000 0.000001 0.000001 0.000000 -0.000000 0.000000 -0.000003 23.408822 -0.961000 7.163151 5.904559 -0.450725 -1.365859 12.631916 -0.427950 -1.319768 -14.360003 7.429169 -0.347329 13.152264 16.678357 -5.794190 -0.000000 -0.000001 0.000000 -0.000000 -0.000001 0.000000 -0.000000 -0.000001 0.000000 -37.559046 -4.830596 1.310660 -1.148018 0.046398 -74.588493 0.000001 -47.500684 -0.000002 -111.669604 -14.603172 -18.465543 -0.013129 -5.013246 9.968849 26.305249 11.734605 -2.912841 -0.000001 -0.000001 -0.000001 -4.246739 -3.852246 -29.678914 2.678728 4.918917 -57.122269 -0.000001 0.000000 -0.000000 -4.671382 1.808526 -53.689754 2.639616 4.893534 -56.665121 -0.000001 -0.000001 0.000002 -7.383481 0.217504 -55.457912 4.039949 5.564629 -71.939343 0.000000 -0.000001 0.000001 -2.223429 4.907401 -64.031125 4.357693 5.657928 -75.188143 -0.000001 -0.000003 0.000005 0.000001 0.000000 0.000004 -25.850350 26.472261 -5.028997 -83.006019 22.555170 4.170675 0.000017 71.587848 0.000004 -1.623364 -0.301622 -27.146155 40.649167 23.170609 3.326387 -7.644504 -17.657697 -8.775697 0.000004 0.000000 0.000003 -4.380658 13.401728 16.119134 1.722055 -3.617440 50.901500 -0.000004 0.000001 -0.000001 -1.151471 -2.294074 37.485635 2.276555 -4.003884 59.230349 0.000003 0.000000 0.000003 -2.103838 -2.408491 47.961810 2.471266 -4.113311 61.980961 0.000001 0.000000 0.000000 1.036925 -5.633804 62.863108 0.256378 -1.525401 19.080427 0.000000 -0.000001 0.000000 0.000001 -0.000000 -0.000000 -0.000000 0.000000 -0.000000 -0.000000 0.000000 -0.000000 -0.000000 0.000000 -0.000000 -0.000000 0.000000 -0.000000 -0.000000 0.000000 0.000000 0.000001 0.000002 -0.000001 -0.000000 0.000000 -0.000000 -0.000000 0.000000 0.000000 0.000001 0.000002 -0.000001 -0.000000 0.000002 0.000001 -0.000000 0.000002 0.000001 -0.000002 -0.000002 -0.000000 
-4.448006 42.720123 14.938171 -41.195084 -37.701647 -23.672502 0.000001 -0.000000 -0.000000 -49.603839 2.860395 21.328043 131.036428 -5.707632 0.219411 -37.807064 -3.883109 -1.917403 0.000000 0.000000 -0.000000 0.000000 0.000000 -0.000000 -0.000003 -0.000001 -0.000000 -8.215418 21.557448 -17.602774 131.327244 7.440160 -1.298179 -35.594503 -21.080868 32.222510 0.000003 -0.000000 0.000001 0.000003 -0.000000 0.000001 0.000000 0.000000 0.000000 24.495603 3.969333 7.018930 5.901955 0.132162 -4.250733 12.695220 -0.296677 -4.283870 -14.483063 6.054161 -0.399318 14.213609 10.678739 -3.598559 0.000001 0.000003 -0.000000 0.000001 0.000003 -0.000000 0.000001 0.000003 -0.000000 -37.559046 -4.830596 1.310662 -7.775845 -1.522096 -76.699357 -0.000013 -43.524308 -0.000020 -104.565702 -11.411954 -16.838716 0.244134 -4.217017 9.724378 25.952890 11.312257 -2.461519 -0.000004 -0.000000 -0.000000 -4.209287 -3.492614 -30.463880 2.682505 4.921384 -57.166610 -0.000001 -0.000001 0.000002 -4.614660 1.989330 -54.409290 2.660311 4.907027 -56.907360 0.000002 0.000000 0.000000 -7.218490 0.350740 -55.513787 4.076473 5.576340 -72.315632 0.000003 0.000001 -0.000004 -2.252508 4.905371 -64.131419 4.383781 5.664748 -75.452635 -0.000001 0.000001 -0.000004 0.000001 -0.000001 0.000000 -23.808417 30.103475 -5.199321 -74.147222 29.595018 12.757296 0.000030 63.282201 -0.000038 7.836245 -8.436667 -42.141301 14.116564 13.192502 8.813174 2.268617 -23.314849 -8.885145 0.000001 -0.000002 -0.000005 1.873187 10.074994 -8.221649 0.459821 -2.019576 25.650089 -0.000002 -0.000000 0.000004 0.059934 -2.617300 4.630006 0.662440 -2.395943 30.905909 -0.000001 0.000001 0.000002 0.028720 -2.848967 15.556680 0.798952 -2.610299 34.031356 0.000000 -0.000001 0.000002 0.239139 -3.843214 29.387053 0.200455 -1.352958 16.853453 -0.000000 -0.000001 -0.000002 -0.000000 -0.000000 0.000001 0.000001 0.000000 0.000000 0.000001 0.000000 0.000000 0.000001 0.000000 0.000000 0.000001 0.000000 0.000000 0.000001 0.000000 0.000000 -0.000000 -0.000003 0.000000 0.000001 0.000000 0.000000 0.000001 0.000000 0.000000 -0.000000 -0.000003 0.000000 0.000000 0.000001 0.000000 0.000000 0.000001 0.000000 0.000001 -0.000000 -0.000000 
-4.815521 42.918388 15.012363 -39.965011 -37.011777 -21.674205 -0.000001 -0.000002 -0.000000 -49.552913 3.347991 20.588185 130.483579 -6.525598 0.155600 -38.201948 -3.963286 -1.647977 -0.000001 0.000000 -0.000000 -0.000001 0.000000 -0.000000 -0.000002 0.000000 0.000000 -8.590058 20.399089 -17.875679 131.631119 7.103292 -1.329017 -35.319260 -21.047329 29.778136 0.000002 0.000000 0.000001 0.000002 0.000000 0.000001 0.000000 0.000000 -0.000004 24.801621 6.379789 6.197025 6.119875 0.409948 -6.694926 12.980662 -0.398212 -6.748373 -15.055402 4.459091 0.998319 14.624840 8.208467 -2.194623 0.000000 0.000000 -0.000000 0.000000 0.000000 -0.000000 0.000000 0.000000 -0.000000 -37.559050 -4.830603 1.310660 -11.518570 -3.251786 -77.056377 -0.000021 -43.489437 -0.000012 -100.203649 -9.806817 -14.316316 0.531207 -3.387747 9.540405 25.484086 10.732094 -1.851985 -0.000002 0.000000 -0.000001 -4.084115 -3.017424 -31.189608 2.692166 4.927575 -57.279022 0.000003 -0.000000 -0.000002 -4.614135 2.142984 -55.216386 2.684478 4.922647 -57.189440 -0.000000 0.000001 0.000000 -7.145107 0.465434 -55.755586 4.094362 5.582002 -72.499685 -0.000002 -0.000001 -0.000001 -2.349356 4.884052 -64.339945 4.401153 5.669199 -75.628506 0.000001 0.000000 -0.000002 -0.000000 0.000001 0.000002 -19.291876 35.913968 -5.431006 -60.814468 33.131161 16.913743 0.000004 51.924433 -0.000002 -8.540563 -2.677063 -16.200794 -1.750323 11.658202 8.921959 10.619730 -25.533064 -3.625362 0.000000 0.000001 0.000001 3.220034 8.597081 -17.005400 0.059916 -0.745456 9.190514 0.000001 0.000001 0.000002 0.113983 -1.500485 -9.637900 0.132198 -1.102881 13.669591 -0.000002 0.000001 -0.000000 0.055617 -2.547342 3.258434 0.316631 -1.689521 21.228158 0.000000 0.000001 0.000000 0.168242 -3.333612 13.026469 0.316646 -1.689531 21.228131 0.000001 0.000002 -0.000003 0.000000 -0.000001 -0.000001 -0.000001 -0.000002 0.000000 -0.000001 -0.000002 0.000000 -0.000001 -0.000002 0.000000 -0.000001 -0.000002 0.000000 -0.000001 -0.000002 0.000000 -0.000001 0.000001 -0.000000 -0.000001 -0.000002 0.000000 -0.000001 -0.000002 0.000000 -0.000001 0.000001 -0.000000 -0.000000 -0.000001 -0.000000 -0.000000 -0.000001 -0.000000 -0.000001 -0.000002 -0.000000 
